<?xml version="1.0" encoding="UTF-8"?>
<svg version="1.1" xmlns="http://www.w3.org/2000/svg" width="893" height="852">
<path d="M0 0 C17.57760682 -0.24507339 34.30317001 0.11001147 51.55136108 4.03112793 C56.15496025 5.07697854 60.77846274 6.02192345 65.40113831 6.97927856 C67.9578345 7.51001904 70.51352266 8.04563677 73.06822205 8.58590698 C89.33681687 12.02135097 105.69769347 14.97174824 122.05172729 17.96774292 C127.17011241 18.90548792 132.28733314 19.84945628 137.40429688 20.79492188 C138.22089814 20.94554549 139.03749941 21.09616911 139.87884617 21.25135708 C143.93737189 22.00014085 147.99524386 22.7521767 152.05195618 23.51072693 C159.5604876 24.91032338 167.07051646 26.2723075 174.6075964 27.51040268 C178.10517058 28.08704976 181.59926205 28.68340623 185.09327126 29.28122711 C186.74724495 29.55843026 188.40287914 29.82593211 190.06012535 30.0828476 C199.21456845 31.50412349 206.36686694 32.79881014 212.65209961 40.18725586 C213.61491402 41.14120082 214.5833536 42.08951483 215.55834961 43.03100586 C216.84225586 44.34584961 216.84225586 44.34584961 218.15209961 45.68725586 C221.88212584 49.47406159 225.7144404 53.06122895 229.75756836 56.51147461 C232.51870286 58.9537977 235.06678772 61.59279847 237.65209961 64.21850586 C239.59100963 66.12712041 241.58909512 67.91436138 243.65209961 69.68725586 C247.16351609 72.70487939 250.40517363 75.92084666 253.65209961 79.21850586 C255.59100963 81.12712041 257.58909512 82.91436138 259.65209961 84.68725586 C263.16351609 87.70487939 266.40517363 90.92084666 269.65209961 94.21850586 C271.59100963 96.12712041 273.58909512 97.91436138 275.65209961 99.68725586 C279.16351609 102.70487939 282.40517363 105.92084666 285.65209961 109.21850586 C287.59100963 111.12712041 289.58909512 112.91436138 291.65209961 114.68725586 C295.16351609 117.70487939 298.40517363 120.92084666 301.65209961 124.21850586 C303.59100963 126.12712041 305.58909512 127.91436138 307.65209961 129.68725586 C311.16351609 132.70487939 314.40517363 135.92084666 317.65209961 139.21850586 C319.59100963 141.12712041 321.58909512 142.91436138 323.65209961 144.68725586 C327.16351609 147.70487939 330.40517363 150.92084666 333.65209961 154.21850586 C335.59100963 156.12712041 337.58909512 157.91436138 339.65209961 159.68725586 C343.16351609 162.70487939 346.40517363 165.92084666 349.65209961 169.21850586 C351.59100963 171.12712041 353.58909512 172.91436138 355.65209961 174.68725586 C359.15791058 177.70006216 362.39492941 180.9102877 365.63647461 184.20288086 C368.28297764 186.80835283 371.07202942 189.22319942 373.88647461 191.64428711 C375.901516 193.4052193 377.79904359 195.25698917 379.65209961 197.18725586 C378.20507582 201.35316118 376.14947495 204.46621621 373.52709961 207.99975586 C368.70060881 214.59790415 364.16243975 221.37002398 359.65209961 228.18725586 C354.6803339 235.69199207 349.62568584 243.08852889 344.33959961 250.37475586 C340.64114493 255.55259241 337.16624371 260.8836214 333.65209961 266.18725586 C328.68236846 273.68769882 323.63179606 281.08133516 318.34741211 288.36303711 C313.90160735 294.58681618 309.74072009 301.01309103 305.53491211 307.40014648 C301.62806425 313.3112073 297.58707548 319.08927577 293.39331055 324.80029297 C291.4647069 327.44414572 289.63052812 330.13593544 287.83959961 332.87475586 C284.76165566 337.53358932 281.63351122 342.15265811 278.46459961 346.74975586 C277.52058346 348.11954357 276.57657318 349.48933534 275.63256836 350.85913086 C274.90432861 351.91583984 274.90432861 351.91583984 274.16137695 352.99389648 C271.52579657 356.82405731 268.90155011 360.6619639 266.27709961 364.49975586 C265.73351807 365.29454346 265.18993652 366.08933105 264.62988281 366.90820312 C263.52297869 368.52673859 262.41612665 370.14530968 261.30932617 371.76391602 C258.5910056 375.73887918 255.87149992 379.71303134 253.15209961 383.68725586 C252.06876044 385.2705852 250.98542711 386.85391854 249.90209961 388.43725586 C234.73543294 410.60392253 219.56876628 432.77058919 204.40209961 454.93725586 C203.86568848 455.72124756 203.32927734 456.50523926 202.77661133 457.31298828 C201.69492895 458.89389618 200.61322327 460.47478815 199.53149414 462.05566406 C196.7977086 466.05097516 194.06434759 470.04657553 191.33178711 474.04272461 C185.83487008 482.08066932 180.33100648 490.113688 174.8112793 498.13598633 C169.62988452 505.66899467 164.47006653 513.21674992 159.30932617 520.76391602 C156.5910056 524.73887918 153.87149992 528.71303134 151.15209961 532.68725586 C150.06876044 534.2705852 148.98542711 535.85391854 147.90209961 537.43725586 C131.65209961 561.18725586 131.65209961 561.18725586 115.40209961 584.93725586 C114.86568848 585.72124756 114.32927734 586.50523926 113.77661133 587.31298828 C112.69492895 588.89389618 111.61322327 590.47478815 110.53149414 592.05566406 C107.7977086 596.05097516 105.06434759 600.04657553 102.33178711 604.04272461 C97.32233677 611.36780851 92.30930271 618.69028027 87.27709961 625.99975586 C82.88317208 632.38272748 78.5149184 638.78298777 74.15209961 645.18725586 C69.35342755 652.23132159 64.54340441 659.26718298 59.71020508 666.28759766 C54.56064613 673.76879939 49.43578916 681.26687781 44.30932617 688.76391602 C41.5910056 692.73887918 38.87149992 696.71303134 36.15209961 700.68725586 C35.06876044 702.2705852 33.98542711 703.85391854 32.90209961 705.43725586 C22.06876628 721.27058919 11.23543294 737.10392253 0.40209961 752.93725586 C-0.13431152 753.72124756 -0.67072266 754.50523926 -1.22338867 755.31298828 C-2.30507105 756.89389618 -3.38677673 758.47478815 -4.46850586 760.05566406 C-7.2022914 764.05097516 -9.93565241 768.04657553 -12.66821289 772.04272461 C-18.16512992 780.08066932 -23.66899352 788.113688 -29.1887207 796.13598633 C-33.25513641 802.04797426 -37.30927467 807.96832378 -41.3581543 813.89233398 C-44.17186183 818.00897757 -46.98981651 822.12258089 -49.81665039 826.23022461 C-55.47527806 834.46051728 -61.09605498 842.6888151 -66.34790039 851.18725586 C-70.06401314 849.94855161 -70.54908395 848.78380468 -72.64868164 845.54272461 C-73.28918457 844.56553467 -73.9296875 843.58834473 -74.58959961 842.58154297 C-75.27296387 841.52330322 -75.95632813 840.46506348 -76.66040039 839.37475586 C-78.10505849 837.17034744 -79.55170653 834.96724196 -81.00024414 832.76538086 C-81.36535095 832.20914536 -81.73045776 831.65290985 -82.10662842 831.07981873 C-85.54429784 825.85575318 -89.11352199 820.73102369 -92.72290039 815.62475586 C-97.00776177 809.54780584 -101.22481973 803.43972166 -105.32568359 797.23730469 C-109.30397974 791.22824649 -113.354953 785.26944883 -117.41040039 779.31225586 C-118.50251831 777.70797729 -118.50251831 777.70797729 -119.61669922 776.07128906 C-121.1143311 773.87187228 -122.6121245 771.67256629 -124.11010742 769.47338867 C-127.69216475 764.21324339 -131.26987958 758.95014725 -134.84790039 753.68725586 C-136.26454478 751.60390738 -137.68121148 749.52057407 -139.09790039 747.43725586 C-198.5979004 659.93725585 -198.5979004 659.93725585 -200.72338867 656.81152344 C-202.13840992 654.7306194 -203.55344895 652.64972745 -204.96850586 650.56884766 C-208.53549413 645.32344569 -212.10216196 640.07782637 -215.66821289 634.83178711 C-222.34636978 625.00816538 -229.02794988 615.18694153 -235.72290039 605.37475586 C-242.21644895 595.85679102 -248.68775313 586.32382043 -255.15551758 576.78833008 C-262.51035926 565.94528815 -269.87700358 555.11029704 -277.24633789 544.27709961 C-279.38486314 541.13291101 -281.52272905 537.98827507 -283.66040039 534.84350586 C-290.38325742 524.95377734 -297.10937492 515.0663166 -303.84790039 505.18725586 C-315.60722759 487.94656986 -327.33453998 470.68416675 -339.05078125 453.41418457 C-350.57677503 436.42499621 -362.12061558 419.44800741 -373.68920898 402.48779297 C-380.53627563 392.44801326 -387.36776526 382.39765321 -394.19946289 372.34741211 C-396.31094914 369.24160779 -398.42305816 366.13622805 -400.53540039 363.03100586 C-407.61547649 352.62253341 -414.69045537 342.21064181 -421.75671387 331.79278564 C-428.4223717 321.96557345 -435.09761151 312.14502744 -441.7902832 302.33618164 C-448.60195881 292.3521697 -455.39604611 282.35621395 -462.19067383 272.3605957 C-465.03602839 268.17500056 -467.88196606 263.98980212 -470.72802734 259.8046875 C-472.14076746 257.72714765 -473.55336523 255.64951099 -474.96582031 253.57177734 C-478.54206307 248.31138572 -482.12057893 243.05256567 -485.70336914 237.79663086 C-488.55057879 233.61972256 -491.39126366 229.43849805 -494.22680664 225.25366211 C-496.9844999 221.18415176 -499.76574189 217.13217758 -502.56274414 213.08959961 C-503.86646627 211.18488212 -505.16986712 209.27994467 -506.47290039 207.37475586 C-507.08351318 206.50302734 -507.69412598 205.63129883 -508.32324219 204.7331543 C-508.87020752 203.9278125 -509.41717285 203.1224707 -509.98071289 202.29272461 C-510.46427246 201.59300537 -510.94783203 200.89328613 -511.44604492 200.17236328 C-512.34790039 198.18725586 -512.34790039 198.18725586 -512.11669922 196.05834961 C-510.98474077 193.30340214 -509.16110144 191.92742337 -506.91040039 189.99975586 C-506.00418945 189.21213867 -505.09797852 188.42452148 -504.16430664 187.61303711 C-503.23489258 186.8125293 -502.30547852 186.01202148 -501.34790039 185.18725586 C-499.67727165 183.69166989 -498.01049947 182.19176311 -496.34790039 180.68725586 C-493.01456706 177.68725586 -489.68123372 174.68725586 -486.34790039 171.68725586 C-485.52032227 170.94217773 -484.69274414 170.19709961 -483.84008789 169.42944336 C-482.2005016 167.95432968 -480.55990384 166.48033934 -478.91821289 165.00756836 C-474.32759429 160.88627818 -469.76342932 156.73851798 -465.22290039 152.56225586 C-461.35422217 149.00472487 -457.44455914 145.50436011 -453.47290039 142.06225586 C-450.19281458 139.1680625 -446.98521982 136.19506694 -443.76757812 133.23193359 C-441.01316611 130.6998547 -438.2404754 128.19690317 -435.41040039 125.74975586 C-431.81831448 122.63761462 -428.33238047 119.418535 -424.84790039 116.18725586 C-420.76489017 112.40093897 -416.65020322 108.66958537 -412.43774414 105.02709961 C-409.7041952 102.62055465 -407.02674382 100.15424142 -404.34790039 97.68725586 C-401.06934935 94.6679909 -397.78209082 91.66523447 -394.41040039 88.74975586 C-390.81831448 85.63761462 -387.33238047 82.418535 -383.84790039 79.18725586 C-379.76489017 75.40093897 -375.65020322 71.66958537 -371.43774414 68.02709961 C-368.7041952 65.62055465 -366.02674382 63.15424142 -363.34790039 60.68725586 C-360.06934935 57.6679909 -356.78209082 54.66523447 -353.41040039 51.74975586 C-349.1785288 48.08687541 -345.08979901 44.27174977 -341.00244141 40.44921875 C-340.20858032 39.71046509 -340.20858032 39.71046509 -339.39868164 38.95678711 C-338.93115479 38.51955322 -338.46362793 38.08231934 -337.98193359 37.63183594 C-337.44270264 37.15512451 -336.90347168 36.67841309 -336.34790039 36.18725586 C-335.62696953 35.53073375 -334.90603867 34.87421164 -334.16326141 34.19779491 C-330.91763658 31.87999076 -328.57736979 31.29279228 -324.66809082 30.5740509 C-324.0098946 30.4488322 -323.35169837 30.32361349 -322.6735568 30.19460028 C-320.47818666 29.78065036 -318.2795605 29.38795368 -316.08032227 28.99511719 C-314.50127324 28.7018623 -312.92246682 28.40729846 -311.34388733 28.11152649 C-307.06329628 27.31331258 -302.77954839 26.53341483 -298.49500465 25.7567389 C-294.00971003 24.94042982 -289.52755664 24.1072266 -285.04504395 23.27580261 C-276.55348999 21.70341345 -268.05924393 20.14610201 -259.56391668 18.59424371 C-249.9119824 16.83038392 -240.26307874 15.05022299 -230.61443615 13.26845896 C-218.85508763 11.09702423 -207.09531298 8.92796044 -195.33312988 6.77192688 C-194.50152092 6.61947805 -193.66991196 6.46702922 -192.81310272 6.30996072 C-188.91943486 5.59632533 -185.02565994 4.88328072 -181.13172913 4.17108154 C-179.76372175 3.92056305 -178.3957153 3.67003948 -177.02770996 3.41950989 C-175.2634605 3.09684001 -175.2634605 3.09684001 -173.46356964 2.76765156 C-171.5734555 2.41555574 -169.6873013 2.03957901 -167.81098461 1.62012863 C-164.92467944 1.11287723 -162.18969487 1.04684984 -159.25874329 1.02903748 C-158.03361526 1.01924866 -156.80848724 1.00945984 -155.54623413 0.99937439 C-154.19537393 0.99346954 -152.84451332 0.98765914 -151.49365234 0.98193359 C-150.06353987 0.97234526 -148.63343017 0.96233462 -147.20332336 0.95193481 C-143.31251181 0.92487768 -139.42168826 0.90384514 -135.53083444 0.88393283 C-131.41581415 0.86191019 -127.30082898 0.83456468 -123.18583679 0.80787659 C-116.23604955 0.7635577 -109.28624887 0.72283671 -102.33642578 0.68457031 C-95.28529964 0.64573635 -88.23419683 0.60428464 -81.18310547 0.55957031 C-80.32492928 0.5541382 -79.46675309 0.54870608 -78.58257157 0.54310936 C-75.14071793 0.52129465 -71.69886454 0.49944158 -68.25701129 0.47756588 C-59.01451306 0.41912803 -49.77203123 0.36528589 -40.5294342 0.32505798 C-39.72077292 0.321501 -38.91211163 0.31794402 -38.07894546 0.31427926 C-31.33420226 0.2846416 -31.33420226 0.2846416 -28.53450978 0.27272975 C-19.02187081 0.23136138 -9.51171821 0.14604927 0 0 Z " fill="#010201" transform="translate(513.347900390625,0.812744140625)"/>
<path d="M0 0 C119.46 0 238.92 0 362 0 C359.7475145 10.13618476 359.7475145 10.13618476 358.4140625 14.12109375 C358.12273437 14.99443359 357.83140625 15.86777344 357.53125 16.76757812 C357.2321875 17.64865234 356.933125 18.52972656 356.625 19.4375 C356.33367187 20.31470703 356.04234375 21.19191406 355.7421875 22.09570312 C354.28833724 26.42218295 352.75004306 30.68478281 351.0234375 34.91015625 C348.74267331 40.51946924 346.87023653 46.24317818 345 52 C342.86283645 58.57845655 340.61821224 65.04296539 338 71.4453125 C336.12867945 76.22595172 334.58576257 81.1188246 333 86 C330.86283645 92.57845655 328.61821224 99.04296539 326 105.4453125 C324.12867945 110.22595172 322.58576257 115.1188246 321 120 C318.86283645 126.57845655 316.61821224 133.04296539 314 139.4453125 C312.12867945 144.22595172 310.58576257 149.1188246 309 154 C306.86283645 160.57845655 304.61821224 167.04296539 302 173.4453125 C300.12867945 178.22595172 298.58576257 183.1188246 297 188 C294.86283645 194.57845655 292.61821224 201.04296539 290 207.4453125 C288.12867945 212.22595172 286.58576257 217.1188246 285 222 C282.86283645 228.57845655 280.61821224 235.04296539 278 241.4453125 C276.12867945 246.22595172 274.58576257 251.1188246 273 256 C270.86283645 262.57845655 268.61821224 269.04296539 266 275.4453125 C264.12867945 280.22595172 262.58576257 285.1188246 261 290 C258.86283645 296.57845655 256.61821224 303.04296539 254 309.4453125 C252.12867945 314.22595172 250.58576257 319.1188246 249 324 C246.86283645 330.57845655 244.61821224 337.04296539 242 343.4453125 C240.12867945 348.22595172 238.58576257 353.1188246 237 358 C234.86283645 364.57845655 232.61821224 371.04296539 230 377.4453125 C228.12867945 382.22595172 226.58576257 387.1188246 225 392 C222.86283645 398.57845655 220.61821224 405.04296539 218 411.4453125 C216.12867945 416.22595172 214.58576257 421.1188246 213 426 C210.86283645 432.57845655 208.61821224 439.04296539 206 445.4453125 C204.12867945 450.22595172 202.58576257 455.1188246 201 460 C199.13980197 465.72592207 197.28250492 471.41855121 195 476.9921875 C192.28936807 483.61788255 190.17812699 490.43875109 188 497.25390625 C186.0821229 503.13489657 183.9285223 508.54824197 181 514 C177.4792355 510.18583846 176.43767845 505.60965269 175 500.75 C173.39321778 495.41916525 171.74225934 490.15098303 169.74560547 484.95214844 C168.45531948 481.57391438 167.26358109 478.16075475 166.0625 474.75 C165.80235107 474.01273682 165.54220215 473.27547363 165.27416992 472.51586914 C163.44027779 467.29990578 161.66795183 462.06635424 159.95703125 456.80859375 C158.95982207 453.88209007 157.88009107 450.99557881 156.78735352 448.10375977 C155.50153271 444.66812632 154.28092308 441.21000144 153.0625 437.75 C152.80235107 437.01273682 152.54220215 436.27547363 152.27416992 435.51586914 C150.44027779 430.29990578 148.66795183 425.06635424 146.95703125 419.80859375 C145.95982207 416.88209007 144.88009107 413.99557881 143.78735352 411.10375977 C142.50153271 407.66812632 141.28092308 404.21000144 140.0625 400.75 C139.80235107 400.01273682 139.54220215 399.27547363 139.27416992 398.51586914 C137.44027779 393.29990578 135.66795183 388.06635424 133.95703125 382.80859375 C132.95982207 379.88209007 131.88009107 376.99557881 130.78735352 374.10375977 C129.50153271 370.66812632 128.28092308 367.21000144 127.0625 363.75 C126.80235107 363.01273682 126.54220215 362.27547363 126.27416992 361.51586914 C124.44027779 356.29990578 122.66795183 351.06635424 120.95703125 345.80859375 C119.95982207 342.88209007 118.88009107 339.99557881 117.78735352 337.10375977 C116.50153271 333.66812632 115.28092308 330.21000144 114.0625 326.75 C113.80235107 326.01273682 113.54220215 325.27547363 113.27416992 324.51586914 C111.44027779 319.29990578 109.66795183 314.06635424 107.95703125 308.80859375 C106.95982207 305.88209007 105.88009107 302.99557881 104.78735352 300.10375977 C103.50153271 296.66812632 102.28092308 293.21000144 101.0625 289.75 C100.80235107 289.01273682 100.54220215 288.27547363 100.27416992 287.51586914 C98.41077223 282.21598593 96.62244788 276.89400858 94.86328125 271.55859375 C93.90492651 268.71822112 92.85403103 265.92355921 91.78125 263.125 C90.44522401 259.49100931 89.26271781 255.80566795 88.0625 252.125 C87.02890498 249.08501465 85.91642336 246.08675076 84.78076172 243.08398438 C83.49620693 239.65529153 82.27861514 236.20344749 81.0625 232.75 C80.80235107 232.01273682 80.54220215 231.27547363 80.27416992 230.51586914 C78.44027779 225.29990578 76.66795183 220.06635424 74.95703125 214.80859375 C73.95982207 211.88209007 72.88009107 208.99557881 71.78735352 206.10375977 C70.50153271 202.66812632 69.28092308 199.21000144 68.0625 195.75 C67.80235107 195.01273682 67.54220215 194.27547363 67.27416992 193.51586914 C65.44027779 188.29990578 63.66795183 183.06635424 61.95703125 177.80859375 C60.95982207 174.88209007 59.88009107 171.99557881 58.78735352 169.10375977 C57.50153271 165.66812632 56.28092308 162.21000144 55.0625 158.75 C54.80235107 158.01273682 54.54220215 157.27547363 54.27416992 156.51586914 C52.44027779 151.29990578 50.66795183 146.06635424 48.95703125 140.80859375 C47.95982207 137.88209007 46.88009107 134.99557881 45.78735352 132.10375977 C44.50153271 128.66812632 43.28092308 125.21000144 42.0625 121.75 C41.67227661 120.64410522 41.67227661 120.64410522 41.27416992 119.51586914 C39.44027779 114.29990578 37.66795183 109.06635424 35.95703125 103.80859375 C34.95982207 100.88209007 33.88009107 97.99557881 32.78735352 95.10375977 C31.50153271 91.66812632 30.28092308 88.21000144 29.0625 84.75 C28.67227661 83.64410522 28.67227661 83.64410522 28.27416992 82.51586914 C26.44027779 77.29990578 24.66795183 72.06635424 22.95703125 66.80859375 C21.95982207 63.88209007 20.88009107 60.99557881 19.78735352 58.10375977 C18.50153271 54.66812632 17.28092308 51.21000144 16.0625 47.75 C15.80235107 47.01273682 15.54220215 46.27547363 15.27416992 45.51586914 C13.44027779 40.29990578 11.66795183 35.06635424 9.95703125 29.80859375 C8.96490092 26.89699496 7.89197192 24.02484483 6.80493164 21.14770508 C5.43331958 17.48799281 4.12083312 13.80771545 2.8125 10.125 C2.40354492 8.98804688 2.40354492 8.98804688 1.98632812 7.828125 C0 2.23255404 0 2.23255404 0 0 Z " fill="#A5FD7A" transform="translate(265,264)"/>
<path d="M0 0 C2.88435369 -0.29417206 5.55402654 -0.39098728 8.44070435 -0.36076355 C9.32446051 -0.36332682 10.20821666 -0.3658901 11.11875331 -0.36853105 C14.09774294 -0.37349593 17.07623239 -0.3569316 20.05517578 -0.34057617 C22.18352242 -0.33973048 24.31186994 -0.3402039 26.44021606 -0.34190369 C32.23337733 -0.34276734 38.02635369 -0.32508181 43.81947184 -0.30418181 C49.86799091 -0.28547652 55.91651384 -0.28366944 61.96505737 -0.28010559 C73.42563884 -0.27076701 84.88613485 -0.24612874 96.34667861 -0.21605712 C109.39120483 -0.18256945 122.43573504 -0.16604129 135.48029351 -0.15097082 C162.32024313 -0.11958074 189.16011678 -0.06678509 216 0 C219.02162399 6.1749199 222.04252719 12.35019206 225.06295776 18.5256958 C226.08798368 20.62123367 227.11316732 22.7166944 228.13851929 24.81207275 C234.74307198 38.30925975 241.31257057 51.82014241 247.75927734 65.39355469 C250.13933034 70.39344563 252.53975025 75.3835784 254.9375 80.375 C255.94662507 82.47655746 256.95573966 84.57811996 257.96484375 86.6796875 C258.46612793 87.72350586 258.96741211 88.76732422 259.48388672 89.84277344 C260.99086367 92.98097406 262.49746591 96.11935425 264.00390625 99.2578125 C264.49922852 100.28946533 264.99455078 101.32111816 265.50488281 102.3840332 C266.49609261 104.44980894 267.48633816 106.51604765 268.47558594 108.58276367 C271.08920322 114.03957273 273.7232554 119.48529471 276.38671875 124.91796875 C277.21526367 126.61759766 277.21526367 126.61759766 278.06054688 128.3515625 C279.11937433 130.52260368 280.18417453 132.69074545 281.25585938 134.85546875 C281.73216797 135.83515625 282.20847656 136.81484375 282.69921875 137.82421875 C283.12033936 138.68104248 283.54145996 139.53786621 283.9753418 140.4206543 C285 143 285 143 286 149 C166.87 149 47.74 149 -75 149 C-73.42697082 144.28091246 -71.66372653 140.04874623 -69.4375 135.64453125 C-69.09033936 134.95030563 -68.74317871 134.25608002 -68.38549805 133.54081726 C-67.2611916 131.29591262 -66.13083188 129.0541237 -65 126.8125 C-64.21600843 125.25137108 -63.43215499 123.69017278 -62.6484375 122.12890625 C-58.48302897 113.84524599 -54.26005957 105.59828807 -49.88867188 97.42114258 C-45.60568218 89.35836085 -41.56791903 81.17261219 -37.5 73 C-32.73560447 63.42813865 -27.95072306 53.88031687 -22.90429688 44.453125 C-17.63406066 34.53687682 -12.69947899 24.44470402 -7.7109375 14.38476562 C-7.34911377 13.65688843 -6.98729004 12.92901123 -6.61450195 12.17907715 C-5.92897449 10.79982899 -5.24513318 9.41974108 -4.56323242 8.03869629 C-3.16710282 5.23166227 -1.74227129 2.61340694 0 0 Z " fill="#D7FDC4" transform="translate(341,89)"/>
<path d="M0 0 C9.81557048 1.63705867 19.48842072 3.85695118 29.1875 6.0625 C30.95730034 6.46305864 32.72715829 6.86336285 34.49707031 7.26342773 C38.16998947 8.09387578 41.84266037 8.92540848 45.51513672 9.7578125 C53.26233434 11.51319863 61.01177708 13.25859817 68.76156616 15.00250244 C70.4235623 15.37651832 72.08552916 15.75066431 73.74746704 16.12493896 C85.02326872 18.66418989 96.30382956 21.18111305 107.58843994 23.6809082 C121.61877006 26.78935494 135.63432772 29.95300852 149.62939453 33.21728516 C152.75187094 33.94238 155.87579412 34.66072865 159.00042725 35.37644958 C161.76371521 36.00996037 164.52622887 36.64680655 167.28863525 37.28414917 C168.62291815 37.59127285 169.95750723 37.89706976 171.29241943 38.20144653 C173.15023135 38.62534654 175.00678334 39.05475676 176.86328125 39.484375 C177.92844971 39.72897461 178.99361816 39.97357422 180.09106445 40.22558594 C187.53929063 42.20844565 187.53929063 42.20844565 189.05493164 44.8125 C189.25465576 45.534375 189.45437988 46.25625 189.66015625 47 C189.89436279 47.79994385 190.12856934 48.5998877 190.36987305 49.42407227 C190.59843994 50.27412842 190.82700684 51.12418457 191.0625 52 C191.56746572 53.73911036 192.07525289 55.47740412 192.5859375 57.21484375 C192.82666992 58.04741699 193.06740234 58.87999023 193.31542969 59.73779297 C194.36255245 63.19807811 195.73540592 66.48900912 197.13671875 69.81640625 C198.38798223 72.98136681 199.2791047 76.23166853 200.21875 79.5 C201.02073235 82.06634353 201.97491786 84.5149524 203 87 C204.69469221 91.10834476 205.99183365 95.23246487 207.21875 99.5 C208.02073235 102.06634353 208.97491786 104.5149524 210 107 C211.69469221 111.10834476 212.99183365 115.23246487 214.21875 119.5 C215.02073235 122.06634353 215.97491786 124.5149524 217 127 C218.69469221 131.10834476 219.99183365 135.23246487 221.21875 139.5 C222.02073235 142.06634353 222.97491786 144.5149524 224 147 C225.69469221 151.10834476 226.99183365 155.23246487 228.21875 159.5 C229.02073235 162.06634353 229.97491786 164.5149524 231 167 C232.69469221 171.10834476 233.99183365 175.23246487 235.21875 179.5 C236.02073235 182.06634353 236.97491786 184.5149524 238 187 C239.69469221 191.10834476 240.99183365 195.23246487 242.21875 199.5 C243.02073235 202.06634353 243.97491786 204.5149524 245 207 C246.69469221 211.10834476 247.99183365 215.23246487 249.21875 219.5 C250.02073235 222.06634353 250.97491786 224.5149524 252 227 C253.69469221 231.10834476 254.99183365 235.23246487 256.21875 239.5 C257.02073235 242.06634353 257.97491786 244.5149524 259 247 C260.69469221 251.10834476 261.99183365 255.23246487 263.21875 259.5 C264.02073235 262.06634353 264.97491786 264.5149524 266 267 C267.69469221 271.10834476 268.99183365 275.23246487 270.21875 279.5 C271.02073235 282.06634353 271.97491786 284.5149524 273 287 C274.69469221 291.10834476 275.99183365 295.23246487 277.21875 299.5 C278.02073235 302.06634353 278.97491786 304.5149524 280 307 C281.69469221 311.10834476 282.99183365 315.23246487 284.21875 319.5 C285.02073235 322.06634353 285.97491786 324.5149524 287 327 C288.69469221 331.10834476 289.99183365 335.23246487 291.21875 339.5 C292.02073235 342.06634353 292.97491786 344.5149524 294 347 C295.69469221 351.10834476 296.99183365 355.23246487 298.21875 359.5 C299.02073235 362.06634353 299.97491786 364.5149524 301 367 C302.69469221 371.10834476 303.99183365 375.23246487 305.21875 379.5 C306.02073235 382.06634353 306.97491786 384.5149524 308 387 C309.36122548 390.29994055 310.51369277 393.56936617 311.5 397 C312.46921018 400.36866025 313.59344795 403.57526957 314.9375 406.8125 C316.96679324 411.72755626 318.47411762 416.7408719 319.99609375 421.83203125 C321.16318661 425.51495854 322.58610245 429.04006777 324.06640625 432.60546875 C325.33034387 435.84728365 326.25802241 439.15833881 327.21875 442.5 C328.02073235 445.06634353 328.97491786 447.5149524 330 450 C331.69469221 454.10834476 332.99183365 458.23246487 334.21875 462.5 C335.02073235 465.06634353 335.97491786 467.5149524 337 470 C338.69469221 474.10834476 339.99183365 478.23246487 341.21875 482.5 C342.02073235 485.06634353 342.97491786 487.5149524 344 490 C345.69204812 494.10193484 346.98939498 498.21849348 348.2109375 502.48046875 C349.30425036 505.9714925 350.69864216 509.31270739 352.1328125 512.67578125 C353.03806436 515.10201935 353.5580652 517.45211062 354 520 C350.18689146 516.54242606 347.59379936 512.59396951 344.8125 508.3125 C343.73813998 506.68022494 342.66254976 505.04875916 341.5859375 503.41796875 C341.00811523 502.54188965 340.43029297 501.66581055 339.83496094 500.76318359 C336.57639387 495.85625677 333.25519813 490.99205664 329.9375 486.125 C328.47781109 483.98180727 327.01817686 481.83857729 325.55859375 479.6953125 C325.18775162 479.15092026 324.81690948 478.60652802 324.43482971 478.04563904 C320.51605885 472.29199818 316.60793372 466.53114881 312.70040894 460.76986694 C303.47796027 447.17241149 294.24123171 433.58469722 285 420 C275.75714336 406.41291412 266.51995683 392.82202548 257.29455566 379.2230835 C248.87264241 366.80885369 240.43770325 354.40350285 232 342 C222.75714336 328.41291412 213.51995683 314.82202548 204.29455566 301.2230835 C195.87264241 288.80885369 187.43770325 276.40350285 179 264 C169.75714336 250.41291412 160.51995683 236.82202548 151.29455566 223.2230835 C142.87264241 210.80885369 134.43770325 198.40350285 126 186 C116.75714336 172.41291412 107.51995683 158.82202548 98.29455566 145.2230835 C89.87264241 132.80885369 81.43770325 120.40350285 73 108 C63.75714336 94.41291412 54.51995683 80.82202548 45.29455566 67.2230835 C39.65926767 58.9164484 34.01972853 50.61272452 28.375 42.3125 C27.69163574 41.30735352 27.00827148 40.30220703 26.30419922 39.26660156 C23.02678554 34.44673913 19.74736922 29.62826314 16.46261597 24.81340027 C14.89373902 22.51340338 13.32588205 20.21271214 11.75811768 17.91195679 C10.65403781 16.29259009 9.54847432 14.67423523 8.44287109 13.0559082 C7.77336426 12.07323975 7.10385742 11.09057129 6.4140625 10.078125 C5.8257666 9.21606445 5.2374707 8.35400391 4.63134766 7.46582031 C3.01171555 5.01770832 1.49047499 2.52843386 0 0 Z " fill="#D6FCC3" transform="translate(51,220)"/>
<path d="M0 0 C-4.88286205 7.77889117 -9.94200031 15.4183452 -15.125 23 C-15.86782227 24.08941895 -16.61064453 25.17883789 -17.37597656 26.30126953 C-19.58167409 29.5357598 -21.79059377 32.76804179 -24 36 C-24.6074707 36.88913086 -25.21494141 37.77826172 -25.84082031 38.69433594 C-29.03724589 43.37225605 -32.2373056 48.04767495 -35.43945312 52.72167969 C-38.12790724 56.64668811 -40.81378063 60.57346199 -43.5 64.5 C-44.58072332 66.07943108 -45.66145248 67.65885817 -46.7421875 69.23828125 C-48.93538644 72.44367513 -51.12803718 75.6494431 -53.3203125 78.85546875 C-58.81722953 86.89341346 -64.32109313 94.92643214 -69.84082031 102.94873047 C-75.02221509 110.48173881 -80.18203308 118.02949406 -85.34277344 125.57666016 C-88.60091569 130.34099722 -91.86066312 135.10423613 -95.12011719 139.86767578 C-97.85405363 143.86323913 -100.58758641 147.85907748 -103.3203125 151.85546875 C-108.81722953 159.89341346 -114.32109313 167.92643214 -119.84082031 175.94873047 C-125.02221509 183.48173881 -130.18203308 191.02949406 -135.34277344 198.57666016 C-138.60091569 203.34099722 -141.86066312 208.10423613 -145.12011719 212.86767578 C-147.85405363 216.86323913 -150.58758641 220.85907748 -153.3203125 224.85546875 C-158.81722953 232.89341346 -164.32109313 240.92643214 -169.84082031 248.94873047 C-175.02221509 256.48173881 -180.18203308 264.02949406 -185.34277344 271.57666016 C-188.06109401 275.55162332 -190.78059969 279.52577548 -193.5 283.5 C-194.58333917 285.08332934 -195.6666725 286.66666268 -196.75 288.25 C-198.91666667 291.41666667 -201.08333333 294.58333333 -203.25 297.75 C-204.0546167 298.92598755 -204.0546167 298.92598755 -204.87548828 300.12573242 C-205.95717066 301.70664032 -207.03887634 303.28753229 -208.12060547 304.8684082 C-210.85439101 308.8637193 -213.58775202 312.85931967 -216.3203125 316.85546875 C-221.81722953 324.89341346 -227.32109313 332.92643214 -232.84082031 340.94873047 C-238.02221509 348.48173881 -243.18203308 356.02949406 -248.34277344 363.57666016 C-251.60091569 368.34099722 -254.86066312 373.10423613 -258.12011719 377.86767578 C-260.85405363 381.86323913 -263.58758641 385.85907748 -266.3203125 389.85546875 C-271.81722953 397.89341346 -277.32109313 405.92643214 -282.84082031 413.94873047 C-288.02221509 421.48173881 -293.18203308 429.02949406 -298.34277344 436.57666016 C-301.60091569 441.34099722 -304.86066312 446.10423613 -308.12011719 450.86767578 C-310.85405363 454.86323913 -313.58758641 458.85907748 -316.3203125 462.85546875 C-317.42186418 464.46615323 -318.52342663 466.07683035 -319.625 467.6875 C-320.16568115 468.47825928 -320.7063623 469.26901855 -321.26342773 470.08374023 C-323.782399 473.76607499 -326.30498484 477.44576777 -328.83984375 481.1171875 C-329.74744542 482.43225744 -330.65499833 483.74736105 -331.5625 485.0625 C-332.00029785 485.69655762 -332.4380957 486.33061523 -332.88916016 486.98388672 C-335.37559113 490.59745117 -337.82567564 494.23246871 -340.24609375 497.890625 C-340.7887085 498.71038818 -341.33132324 499.53015137 -341.89038086 500.37475586 C-342.94009094 501.96452609 -343.98663387 503.55639346 -345.02954102 505.15063477 C-345.50447998 505.87049561 -345.97941895 506.59035645 -346.46875 507.33203125 C-346.88576172 507.96858643 -347.30277344 508.6051416 -347.73242188 509.26098633 C-349.01961522 511.02691048 -350.41553234 512.49942609 -352 514 C-351.26995835 509.56821777 -349.83591306 505.45770545 -348.3125 501.25 C-347.76683612 499.72399086 -347.2212658 498.19794825 -346.67578125 496.671875 C-346.2573999 495.50688477 -346.2573999 495.50688477 -345.83056641 494.31835938 C-344.54033852 490.71694725 -343.27064838 487.10835594 -342 483.5 C-341.50011083 482.08329422 -341.00011052 480.66662765 -340.5 479.25 C-340.2525 478.54875 -340.005 477.8475 -339.75 477.125 C-339 475 -338.25 472.875 -337.5 470.75 C-337.25241943 470.0485083 -337.00483887 469.3470166 -336.74975586 468.62426758 C-336.25060373 467.21003029 -335.75141762 465.795805 -335.25219727 464.3815918 C-333.98894362 460.80285399 -332.72631246 457.22389865 -331.46484375 453.64453125 C-328.75268674 445.95086136 -326.02497991 438.26312275 -323.27734375 430.58203125 C-321.09116501 424.45137099 -318.92956534 418.31204921 -316.76611328 412.17333984 C-315.26297136 407.90916859 -313.75749421 403.6458213 -312.25244141 399.38232422 C-310.98912372 395.80333615 -309.72639798 392.22414133 -308.46484375 388.64453125 C-305.75268674 380.95086136 -303.02497991 373.26312275 -300.27734375 365.58203125 C-297.83316512 358.72786673 -295.41853546 351.86324576 -293 345 C-289.77709825 335.85414827 -286.54346563 326.71256367 -283.27734375 317.58203125 C-281.09116501 311.45137099 -278.92956534 305.31204921 -276.76611328 299.17333984 C-275.26297136 294.90916859 -273.75749421 290.6458213 -272.25244141 286.38232422 C-270.98912372 282.80333615 -269.72639798 279.22414133 -268.46484375 275.64453125 C-265.75268674 267.95086136 -263.02497991 260.26312275 -260.27734375 252.58203125 C-258.09116501 246.45137099 -255.92956534 240.31204921 -253.76611328 234.17333984 C-252.26297136 229.90916859 -250.75749421 225.6458213 -249.25244141 221.38232422 C-247.98912372 217.80333615 -246.72639798 214.22414133 -245.46484375 210.64453125 C-242.75268674 202.95086136 -240.02497991 195.26312275 -237.27734375 187.58203125 C-234.83316512 180.72786673 -232.41853546 173.86324576 -230 167 C-226.77709825 157.85414827 -223.54346563 148.71256367 -220.27734375 139.58203125 C-218.09116501 133.45137099 -215.92956534 127.31204921 -213.76611328 121.17333984 C-212.26297136 116.90916859 -210.75749421 112.6458213 -209.25244141 108.38232422 C-207.98912372 104.80333615 -206.72639798 101.22414133 -205.46484375 97.64453125 C-202.75405535 89.95474374 -200.02807093 82.27076233 -197.28125 74.59375 C-195.61523652 69.92078535 -193.96481217 65.24238876 -192.31835938 60.5625 C-191.8396085 59.20311724 -191.3409693 57.85063329 -190.82641602 56.50439453 C-189.90016975 53.87020195 -189.90016975 53.87020195 -189.31225586 50.52294922 C-188.32572927 46.4577291 -187.32426384 43.49048489 -185 40 C-179.45506208 37.04322375 -173.71388916 36.14751208 -167.5625 35.125 C-166.02686896 34.8286929 -164.4923376 34.52662737 -162.95898438 34.21875 C-159.47806449 33.52882071 -155.99230376 32.87322838 -152.50219727 32.23144531 C-128.86351752 27.82007606 -105.39197396 22.45613253 -81.93359375 17.1875 C-80.25371715 16.81025095 -80.25371715 16.81025095 -78.53990364 16.42538071 C-68.12399446 14.08518512 -57.70938436 11.73924297 -47.29614258 9.38720703 C-41.52159174 8.08319205 -35.74590395 6.78432028 -29.96946907 5.48867798 C-27.79330744 4.9994681 -25.61759322 4.50826335 -23.44235039 4.01498413 C-20.43585708 3.3332796 -17.42796894 2.65809402 -14.41967773 1.984375 C-13.53422775 1.78187637 -12.64877777 1.57937775 -11.73649597 1.3707428 C-7.75892897 0.48659707 -4.10472506 -0.26635801 0 0 Z " fill="#55C71D" transform="translate(842,221)"/>
<path d="M0 0 C3.63236086 0.65715861 7.24930793 1.3812861 10.86645508 2.1171875 C11.9259436 2.33030579 12.98543213 2.54342407 14.07702637 2.76300049 C17.55845377 3.46409841 21.03900493 4.16944352 24.51953125 4.875 C26.94467635 5.36462398 29.36986313 5.85404154 31.79508972 6.34326172 C36.86661844 7.36696024 41.93773289 8.39267935 47.00854492 9.41992188 C53.51588973 10.73807686 60.02409665 12.05191599 66.53259754 13.36434937 C71.53504191 14.37344798 76.5371015 15.38444289 81.5390377 16.39605713 C83.93958111 16.88138847 86.34022716 17.3662124 88.74097633 17.8505249 C92.08787274 18.52607999 95.43426156 19.20409348 98.78051758 19.8828125 C99.77639389 20.08336243 100.7722702 20.28391235 101.79832458 20.49053955 C103.16288284 20.76810089 103.16288284 20.76810089 104.55500793 21.05126953 C105.34565549 21.21128448 106.13630304 21.37129944 106.95090961 21.53616333 C109 22 109 22 112 23 C111.37400489 27.14880626 109.98444123 30.4015349 108.10838318 34.14399719 C107.80942943 34.74446796 107.51047568 35.34493873 107.20246273 35.96360558 C106.20241956 37.96862092 105.19387733 39.96923502 104.18530273 41.9699707 C103.46543698 43.40885574 102.74609999 44.84800542 102.0272522 46.28739929 C100.07612698 50.19051036 98.11762477 54.08987759 96.15778232 57.98861718 C94.11017987 62.06506688 92.06937453 66.14491641 90.02784729 70.22441101 C86.16172074 77.94734029 82.28948651 85.66719025 78.41505152 93.38595408 C74.00409061 102.17434252 69.59994497 110.9661398 65.19637001 119.75823081 C56.13849441 137.84262529 47.07206379 155.92271934 38 174 C36.57014246 173.84846215 35.14050734 173.6948247 33.71096802 173.54031372 C32.51674067 173.41231982 32.51674067 173.41231982 31.29838753 173.28174019 C28.29152207 172.91315359 25.38050985 172.29863218 22.4296875 171.6171875 C21.22038574 171.34076416 20.01108398 171.06434082 18.76513672 170.77954102 C16.83951904 170.33179321 16.83951904 170.33179321 14.875 169.875 C13.49898698 169.55926352 12.12284477 169.24408959 10.74658203 168.92944336 C7.8982311 168.27768113 5.05044324 167.623544 2.203125 166.96728516 C-4.23616772 165.48397975 -10.68009261 164.02119458 -17.125 162.5625 C-18.3821582 162.27753662 -19.63931641 161.99257324 -20.93457031 161.69897461 C-31.23319094 159.37487531 -41.55212041 157.1509535 -51.875 154.9375 C-63.32335252 152.48254946 -74.73353351 149.92548436 -86.10839844 147.14599609 C-95.64490415 144.82098024 -105.22299188 142.70163155 -114.80859375 140.58984375 C-122.94149627 138.79738357 -131.06465368 136.96237459 -139.1875 135.125 C-139.88337219 134.96766388 -140.57924438 134.81032776 -141.29620361 134.64822388 C-145.1976122 133.76611436 -149.0988782 132.88337694 -153 132 C-151.18476645 128.02871569 -148.60589546 125.54529451 -145.375 122.6875 C-144.56095703 121.95466797 -144.56095703 121.95466797 -143.73046875 121.20703125 C-140.22641129 118.0608704 -136.68367141 114.95918189 -133.125 111.875 C-130.38176582 109.45449925 -127.69115432 106.97799358 -125 104.5 C-121.09018405 100.89987244 -117.14133532 97.35582395 -113.125 93.875 C-110.38176582 91.45449925 -107.69115432 88.97799358 -105 86.5 C-101.09018405 82.89987244 -97.14133532 79.35582395 -93.125 75.875 C-90.38176582 73.45449925 -87.69115432 70.97799358 -85 68.5 C-81.09018405 64.89987244 -77.14133532 61.35582395 -73.125 57.875 C-70.38176582 55.45449925 -67.69115432 52.97799358 -65 50.5 C-61.09018405 46.89987244 -57.14133532 43.35582395 -53.125 39.875 C-50.38176582 37.45449925 -47.69115432 34.97799358 -45 32.5 C-41.09018405 28.89987244 -37.14133532 25.35582395 -33.125 21.875 C-29.85230428 18.9873273 -26.65157264 16.02142364 -23.44165039 13.06445312 C-19.88553595 9.79461922 -16.28329375 6.58777957 -12.62109375 3.4375 C-10.94026966 2.06106864 -10.94026966 2.06106864 -9.78515625 0.25 C-6.81198358 -1.83187145 -3.41206809 -0.56671978 0 0 Z " fill="#A5FC7A" transform="translate(202,62)"/>
<path d="M0 0 C0.68191406 0.77214844 1.36382813 1.54429688 2.06640625 2.33984375 C4.8394829 5.3479269 7.56852005 8.19457544 10.69140625 10.83984375 C14.18404055 13.83451831 17.40244508 17.03171912 20.62890625 20.30859375 C22.56781627 22.2172083 24.56590176 24.00444927 26.62890625 25.77734375 C30.13892136 28.79376298 33.37941901 32.00829507 36.625 35.3046875 C39.21136776 37.85072204 41.94425905 40.19755932 44.6953125 42.5625 C47.19459763 44.77903772 49.51172509 47.14896656 51.8515625 49.53125 C53.69484199 51.34212018 55.60713424 53.03055729 57.56640625 54.71484375 C61.09525388 57.75414026 64.35895652 60.98751222 67.625 64.3046875 C70.21136776 66.85072204 72.94425905 69.19755932 75.6953125 71.5625 C78.19459763 73.77903772 80.51172509 76.14896656 82.8515625 78.53125 C84.69484199 80.34212018 86.60713424 82.03055729 88.56640625 83.71484375 C92.09525388 86.75414026 95.35895652 89.98751222 98.625 93.3046875 C101.21136776 95.85072204 103.94425905 98.19755932 106.6953125 100.5625 C109.19459763 102.77903772 111.51172509 105.14896656 113.8515625 107.53125 C115.69484199 109.34212018 117.60713424 111.03055729 119.56640625 112.71484375 C123.15393361 115.80081388 126.47912358 119.08128727 129.76953125 122.48046875 C131.60923534 124.34439498 131.60923534 124.34439498 133.86328125 125.88671875 C134.4459375 126.345625 135.02859375 126.80453125 135.62890625 127.27734375 C135.62890625 127.93734375 135.62890625 128.59734375 135.62890625 129.27734375 C114.98314749 134.07525458 94.32813473 138.82216598 73.6315918 143.39648438 C72.15022131 143.72392869 70.66885732 144.0514024 69.1875 144.37890625 C68.46523727 144.53856873 67.74297455 144.6982312 66.99882507 144.86273193 C59.72341667 146.47344606 52.45762214 148.12567518 45.19140625 149.77734375 C33.72929089 152.38115156 22.24670559 154.87597369 10.75390625 157.33984375 C-1.84900143 160.0418958 -14.39906691 162.90193462 -26.921875 165.95703125 C-32.18536814 167.2399902 -37.45994931 168.46632575 -42.74609375 169.65234375 C-43.85343872 169.90419434 -43.85343872 169.90419434 -44.9831543 170.16113281 C-47.84896156 170.79744441 -50.42476658 171.27734375 -53.37109375 171.27734375 C-64.63694481 148.28188559 -75.90047399 125.28550778 -87.07470703 102.24536133 C-91.72341959 92.66153621 -96.39013863 83.08662537 -101.06469727 73.51538086 C-105.1720987 65.10526914 -109.27335905 56.69216926 -113.37109375 48.27734375 C-113.71710632 47.56705017 -114.0631189 46.85675659 -114.4196167 46.12493896 C-116.49345341 41.86645369 -118.55975534 37.60439792 -120.62109375 33.33984375 C-121.11649658 32.32196777 -121.61189941 31.3040918 -122.12231445 30.25537109 C-122.56019287 29.34609863 -122.99807129 28.43682617 -123.44921875 27.5 C-123.8246582 26.72406494 -124.20009766 25.94812988 -124.58691406 25.14868164 C-125.37109375 23.27734375 -125.37109375 23.27734375 -125.37109375 21.27734375 C-116.35142742 19.14515918 -107.30690127 17.20323669 -98.21875 15.38671875 C-96.88228899 15.11838048 -95.54584847 14.84994014 -94.20942688 14.58140564 C-89.95146449 13.72679455 -85.69258497 12.87681019 -81.43359375 12.02734375 C-79.97137443 11.73540283 -78.50915519 11.44346151 -77.04693604 11.15151978 C-59.62878793 7.67589514 -42.20687319 4.22078845 -24.74609375 0.96484375 C-23.98112579 0.82018677 -23.21615784 0.67552979 -22.42800903 0.52648926 C-20.31387766 0.1280106 -18.19836273 -0.26183761 -16.08203125 -0.6484375 C-14.94040527 -0.85895752 -13.7987793 -1.06947754 -12.62255859 -1.28637695 C-3.4623586 -2.51548623 -3.4623586 -2.51548623 0 0 Z " fill="#91FD5C" transform="translate(708.37109375,64.72265625)"/>
<path d="M0 0 C8.61987778 0.10762007 17.23813603 0.12555426 25.85859525 0.12039137 C36.45770561 0.11491299 47.05589784 0.17062255 57.65472293 0.2439642 C60.59939456 0.26060926 63.54390824 0.26663467 66.48862195 0.26987553 C92.43609387 0.32491421 116.72221946 3.10801143 142.07100606 8.65968037 C148.34235593 10.02430561 154.65334898 11.15629011 160.97110105 12.28444767 C163.00840861 12.65836946 165.04554947 13.03320214 167.08242917 13.40944767 C170.07035848 13.95905585 173.05866137 14.50625294 176.04800534 15.04811954 C179.08606534 15.59976666 182.12242761 16.16002369 185.15860105 16.72194767 C186.51265294 16.96411518 186.51265294 16.96411518 187.89405942 17.21117496 C188.71926587 17.36538914 189.54447232 17.51960331 190.39468503 17.67849064 C191.47374364 17.8754604 191.47374364 17.8754604 192.57460141 18.07640934 C194.4750073 18.60476017 194.4750073 18.60476017 197.4750073 20.60476017 C192.25474038 21.65389696 187.03418065 22.70156223 181.8133862 23.74807072 C180.05094233 24.10154268 178.28856844 24.45536384 176.52627683 24.80959415 C175.68564694 24.97854191 174.84501706 25.14748966 173.97891355 25.32155704 C173.17558434 25.48342314 172.37225513 25.64528923 171.54458261 25.81206036 C169.74863098 26.17016298 167.95149444 26.522396 166.15299821 26.86749172 C161.56705378 27.75268579 157.02946703 28.69544069 152.51167417 29.88262272 C129.86203625 35.47374171 106.42207799 34.50089092 83.25384808 34.57277179 C79.4784701 34.58536065 75.70316516 34.60395695 71.9278214 34.6242857 C61.35582072 34.67998036 50.78388386 34.72765281 40.21174264 34.74078751 C39.20366324 34.74205691 39.20366324 34.74205691 38.1752186 34.74335195 C36.81423454 34.74504196 35.45325047 34.74673173 34.0922664 34.74842127 C33.41717685 34.74927239 32.74208731 34.7501235 32.0465405 34.7510004 C31.03258064 34.75226766 31.03258064 34.75226766 29.99813674 34.75356052 C19.83460631 34.76784409 9.67245019 34.8349314 -0.49056888 34.93557072 C-117.75571799 36.07846242 -117.75571799 36.07846242 -174.5249927 19.60476017 C-174.5249927 18.94476017 -174.5249927 18.28476017 -174.5249927 17.60476017 C-115.99089429 3.70371355 -60.06583151 -0.78756329 0 0 Z " fill="#F1F2F1" transform="translate(437.5249927043915,29.39523983001709)"/>
<path d="M0 0 C0.66 0.99 1.32 1.98 2 3 C1.0465616 6.46704871 -0.28676594 8.6567524 -3 11 C-2.32829194 7.1936543 -1.27253436 3.64793184 0 0 Z " fill="#3C8D14" transform="translate(493,724)"/>
<path d="M0 0 C0.99 0 1.98 0 3 0 C3.66 2.64 4.32 5.28 5 8 C2.20127563 5.47211993 0.54226981 3.79588866 0 0 Z " fill="#ACC99D" transform="translate(400,732)"/>
</svg>
